# Blender 4.2.0
# www.blender.org
mtllib explosion.mtl
o Explsn
v -1.056607 -0.226905 1.661532
v -0.988586 -0.514272 0.373959
v 0.228390 -0.685314 1.469339
v 0.172822 -0.944707 0.093711
v -0.154186 -0.822420 0.166003
v -0.854239 0.294892 0.972755
v -0.879739 0.388381 0.323972
v -0.740108 0.852020 0.027003
v -0.326415 0.354096 0.939383
v 0.115534 0.680265 0.736664
v 0.264821 1.223693 0.478269
v -1.199649 -0.952320 -0.681685
v -0.710856 -0.239532 -1.020777
v -0.059258 -0.964607 -0.502719
v 0.249467 -0.893420 -0.889578
v 0.008040 -0.399332 -1.088497
v -1.000658 0.261586 -0.354958
v -0.672892 0.228685 -0.883508
v -0.503220 0.698691 -0.847222
v -0.420282 1.052395 -0.262267
v -0.080636 1.298603 -0.918692
v -0.061165 1.114778 -1.348361
v -0.043808 -0.743769 1.513522
v 0.679072 -1.049178 0.125991
v 0.796784 -0.630769 0.601164
v 1.142549 -0.980984 0.001356
v 1.570079 -0.497030 0.106819
v 0.700091 0.061043 0.918221
v 1.740424 0.041998 0.273658
v 0.578516 1.329862 0.335885
v 1.711862 0.084284 0.408263
v 0.839211 -1.476520 -0.538160
v 1.006392 -0.119587 -0.813221
v 0.695069 -1.093013 -1.104922
v 0.499826 -0.552421 -1.286146
v 1.353472 -1.279670 -0.418528
v 1.514702 -0.502055 -0.482963
v 1.220744 -0.937224 -0.901405
v 1.174245 -0.611988 -0.962310
v 0.834377 0.379446 -0.748701
v 0.600432 0.937463 -0.503770
v 0.763674 0.369130 -0.942483
v 0.423377 0.907853 -1.046968
v 1.009033 0.393508 -0.556318
vn -0.3021 -0.9342 0.1897
vn -0.4783 0.5253 0.7038
vn -0.2858 0.9076 0.3075
vn -0.6103 -0.5338 -0.5853
vn -0.0056 -0.5846 -0.8113
vn -0.7695 0.6165 -0.1669
vn -0.7500 0.5863 -0.3061
vn -0.7254 0.3094 -0.6149
vn 0.4205 -0.6568 0.6259
vn 0.8739 -0.1437 -0.4645
vn 0.4077 -0.1386 -0.9025
vn 0.4176 -0.6920 -0.5888
vn 0.5539 0.4085 -0.7255
vn 0.8275 0.4722 -0.3038
vn -0.1677 -0.7327 0.6595
vn 0.1622 -0.9858 0.0443
vn 0.3573 0.2926 0.8870
vn 0.3309 0.5394 0.7743
vn -0.4984 -0.4764 -0.7243
vn -0.4826 -0.7553 -0.4434
vn -0.6281 -0.7668 -0.1322
vn 0.2073 0.9773 0.0428
vn -0.3160 -0.9361 0.1542
vn -0.1469 -0.9345 0.3243
vn 0.8719 -0.4154 0.2593
vn 0.2135 -0.7764 0.5930
vn -0.9328 0.3459 0.1015
vn -0.4081 0.8969 0.1701
vn 0.7154 0.6004 -0.3574
vn -0.7334 -0.5347 0.4198
vn -0.9803 0.1930 -0.0409
vn 0.2311 0.6306 0.7409
vn -0.7968 0.2624 -0.5443
vn -0.1699 0.1344 -0.9762
vn 0.6246 -0.2516 0.7394
vn 0.4736 -0.3935 0.7879
vn 0.6923 0.1576 -0.7042
vn 0.6791 0.3258 -0.6578
vn -0.9813 0.1234 0.1476
vn 0.8840 0.2761 -0.3772
vn 0.2046 0.4945 0.8448
vn -0.0064 0.1928 -0.9812
vn -0.3789 -0.8652 0.3286
vn -0.0813 0.9491 -0.3044
vt 0.287576 0.512944
vt 0.219172 0.508738
vt 0.212994 0.296783
vt 0.336247 0.347725
vt 0.249946 0.706660
vt 0.378756 0.662259
vt 0.424832 0.755789
vt 0.253600 0.838707
vt 0.324260 0.607093
vt 0.287453 0.618214
vt 0.850177 0.295677
vt 0.776611 0.499742
vt 0.779433 0.317123
vt 0.884179 0.486183
vt 0.838039 0.606173
vt 0.812226 0.848293
vt 1.020455 0.948162
vt 0.706006 0.813974
vt 0.670743 0.891889
vt 1.003600 0.838707
vt 0.918142 0.727748
vt 0.840235 0.729584
vt 0.341611 0.035031
vt 0.552707 0.112452
vt 0.530691 0.264659
vt 0.403959 0.221651
vt 0.670395 0.256737
vt 0.661887 0.322528
vt 0.597121 0.292918
vt 0.639113 0.144785
vt 0.729693 0.419843
vt 0.734536 0.282137
vt 0.741535 0.132321
vt 0.639639 0.431799
vt 0.643783 0.612064
vt 0.651282 0.766373
vt 0.572065 0.768471
vt 0.619783 0.603278
vt 0.207487 0.170182
vt 0.317817 0.365177
vt 0.514744 0.383059
vt 0.462892 0.738494
vt 0.405953 0.437758
vt 0.270455 0.948162
vt 0.957487 0.170182
vt 0.962994 0.296783
vt 0.969172 0.508738
vt 0.168142 0.727748
vt 0.503528 0.390273
vt 0.589020 0.567858
vt 0.134179 0.486183
vt 1.091611 0.035031
s 0
usemtl Material
f 1/1/1 2/2/1 5/3/1 3/4/1
f 7/5/2 10/6/2 11/7/2 8/8/2
f 9/9/3 10/6/3 7/5/3 6/10/3
f 14/11/4 16/12/4 15/13/4
f 12/14/5 13/15/5 16/12/5 14/11/5
f 19/16/6 20/17/6 22/18/6 21/19/6
f 8/20/7 20/17/7 19/16/7 17/21/7
f 19/16/8 21/19/8 18/22/8 17/21/8
f 24/23/9 26/24/9 27/25/9 25/26/9
f 38/27/10 39/28/10 37/29/10 36/30/10
f 35/31/11 39/28/11 38/27/11 34/32/11
f 32/33/12 34/32/12 38/27/12 36/30/12
f 37/29/13 39/28/13 35/31/13 33/34/13
f 42/35/14 43/36/14 41/37/14 40/38/14
f 4/39/15 24/23/15 25/26/15 5/3/15
f 3/4/16 5/3/16 25/26/16 23/40/16
f 10/6/17 29/41/17 30/42/17 11/7/17
f 28/43/18 29/41/18 10/6/18 9/9/18
f 16/12/19 35/31/19 34/32/19 15/13/19
f 14/11/20 15/13/20 34/32/20 32/33/20
f 22/18/21 43/36/21 42/35/21 21/19/21
f 41/37/22 43/36/22 22/18/22 20/44/22
f 4/45/23 5/46/23 14/11/23
f 2/47/24 12/14/24 14/11/24 5/46/24
f 36/30/25 37/29/25 27/25/25 26/24/25
f 24/23/26 32/33/26 36/30/26 26/24/26
f 7/5/27 8/8/27 17/48/27
f 11/7/28 20/44/28 8/8/28
f 40/38/29 41/37/29 30/42/29 29/41/29
f 31/49/30 44/50/30 40/38/30 29/41/30
f 1/1/31 6/10/31 7/5/31 2/2/31
f 1/1/32 3/4/32 9/9/32 6/10/32
f 12/14/33 17/21/33 18/22/33 13/15/33
f 18/22/34 21/19/34 16/12/34 13/15/34
f 25/26/35 29/41/35 28/43/35 23/40/35
f 25/26/36 27/25/36 31/49/36 29/41/36
f 35/31/37 42/35/37 40/38/37 33/34/37
f 40/38/38 44/50/38 37/29/38 33/34/38
f 2/2/39 7/5/39 17/48/39 12/51/39
f 37/29/40 44/50/40 31/49/40 27/25/40
f 3/4/41 23/40/41 28/43/41 9/9/41
f 21/19/42 42/35/42 35/31/42 16/12/42
f 4/45/43 14/11/43 32/33/43 24/52/43
f 30/42/44 41/37/44 20/44/44 11/7/44
