{
	"asset":{
		"generator":"Khronos glTF Blender I/O v4.2.57",
		"version":"2.0"
	},
	"scene":0,
	"scenes":[
		{
			"name":"Scene",
			"nodes":[
				0
			]
		}
	],
	"nodes":[
		{
			"mesh":0,
			"name":"CubeTowerTry"
		}
	],
	"materials":[
		{
			"doubleSided":true,
			"name":"Material.001",
			"pbrMetallicRoughness":{
				"baseColorTexture":{
					"index":0
				},
				"metallicFactor":0,
				"roughnessFactor":0.5
			}
		}
	],
	"meshes":[
		{
			"name":"CubeTowerTry",
			"primitives":[
				{
					"attributes":{
						"POSITION":0,
						"NORMAL":1,
						"TEXCOORD_0":2
					},
					"indices":3,
					"material":0
				}
			]
		}
	],
	"textures":[
		{
			"sampler":0,
			"source":0
		}
	],
	"images":[
		{
			"mimeType":"image/jpeg",
			"name":"building",
			"uri":"building.jpg"
		}
	],
	"accessors":[
		{
			"bufferView":0,
			"componentType":5126,
			"count":11112,
			"max":[
				1.718671202659607,
				15.374674797058105,
				1.8034464120864868
			],
			"min":[
				-1.7568341493606567,
				-0.6677916646003723,
				-1.7520592212677002
			],
			"type":"VEC3"
		},
		{
			"bufferView":1,
			"componentType":5126,
			"count":11112,
			"type":"VEC3"
		},
		{
			"bufferView":2,
			"componentType":5126,
			"count":11112,
			"type":"VEC2"
		},
		{
			"bufferView":3,
			"componentType":5123,
			"count":28752,
			"type":"SCALAR"
		}
	],
	"bufferViews":[
		{
			"buffer":0,
			"byteLength":133344,
			"byteOffset":0,
			"target":34962
		},
		{
			"buffer":0,
			"byteLength":133344,
			"byteOffset":133344,
			"target":34962
		},
		{
			"buffer":0,
			"byteLength":88896,
			"byteOffset":266688,
			"target":34962
		},
		{
			"buffer":0,
			"byteLength":57504,
			"byteOffset":355584,
			"target":34963
		}
	],
	"samplers":[
		{
			"magFilter":9729,
			"minFilter":9987
		}
	],
	"buffers":[
		{
			"byteLength":413088,
			"uri":"CubeTower.bin"
		}
	]
}
