{
	"asset":{
		"generator":"Khronos glTF Blender I/O v4.2.57",
		"version":"2.0"
	},
	"extensionsUsed":[
		"KHR_materials_specular"
	],
	"scene":0,
	"scenes":[
		{
			"name":"Scene",
			"nodes":[
				0,
				1
			]
		}
	],
	"nodes":[
		{
			"mesh":0,
			"name":"TestMap",
			"rotation":[
				0.7071068286895752,
				0,
				0,
				0.7071068286895752
			],
			"translation":[
				0,
				1.9521578550338745,
				0
			]
		},
		{
			"mesh":1,
			"name":"TestMap -colonly",
			"rotation":[
				0.7071068286895752,
				0,
				0,
				0.7071068286895752
			],
			"translation":[
				0,
				1.9521578550338745,
				0
			]
		}
	],
	"materials":[
		{
			"doubleSided":true,
			"extensions":{
				"KHR_materials_specular":{
					"specularFactor":0
				}
			},
			"name":"palette.002",
			"normalTexture":{
				"index":0
			},
			"pbrMetallicRoughness":{
				"metallicFactor":0,
				"metallicRoughnessTexture":{
					"index":1
				}
			}
		},
		{
			"doubleSided":true,
			"name":"Material",
			"normalTexture":{
				"index":2
			},
			"pbrMetallicRoughness":{
				"baseColorTexture":{
					"index":3
				},
				"metallicFactor":0,
				"metallicRoughnessTexture":{
					"index":4
				}
			}
		},
		{
			"doubleSided":true,
			"name":"Roof",
			"pbrMetallicRoughness":{
				"metallicFactor":0,
				"roughnessFactor":0.5
			}
		},
		{
			"doubleSided":true,
			"name":"Metal01",
			"pbrMetallicRoughness":{
				"metallicFactor":0,
				"roughnessFactor":0.5
			}
		},
		{
			"doubleSided":true,
			"name":"Material.001",
			"normalTexture":{
				"index":5
			},
			"pbrMetallicRoughness":{
				"baseColorTexture":{
					"index":6
				},
				"metallicFactor":0,
				"metallicRoughnessTexture":{
					"index":7
				}
			}
		},
		{
			"doubleSided":true,
			"name":"Roof.001",
			"pbrMetallicRoughness":{
				"baseColorTexture":{
					"index":8
				},
				"metallicFactor":0,
				"roughnessFactor":0.5
			}
		}
	],
	"meshes":[
		{
			"name":"Untitled.002",
			"primitives":[
				{
					"attributes":{
						"POSITION":0,
						"NORMAL":1,
						"TEXCOORD_0":2
					},
					"indices":3,
					"material":0
				},
				{
					"attributes":{
						"POSITION":4,
						"NORMAL":5,
						"TEXCOORD_0":6
					},
					"indices":7,
					"material":1
				},
				{
					"attributes":{
						"POSITION":8,
						"NORMAL":9,
						"TEXCOORD_0":10
					},
					"indices":11,
					"material":2
				}
			]
		},
		{
			"name":"Untitled.001",
			"primitives":[
				{
					"attributes":{
						"POSITION":12,
						"NORMAL":13,
						"TEXCOORD_0":14
					},
					"indices":3,
					"material":3
				},
				{
					"attributes":{
						"POSITION":15,
						"NORMAL":16,
						"TEXCOORD_0":17
					},
					"indices":7,
					"material":4
				},
				{
					"attributes":{
						"POSITION":18,
						"NORMAL":19,
						"TEXCOORD_0":20
					},
					"indices":11,
					"material":5
				}
			]
		}
	],
	"textures":[
		{
			"sampler":0,
			"source":0
		},
		{
			"sampler":0,
			"source":1
		},
		{
			"sampler":0,
			"source":2
		},
		{
			"sampler":0,
			"source":3
		},
		{
			"sampler":0,
			"source":4
		},
		{
			"sampler":0,
			"source":5
		},
		{
			"sampler":0,
			"source":6
		},
		{
			"sampler":0,
			"source":7
		},
		{
			"sampler":0,
			"source":8
		}
	],
	"images":[
		{
			"mimeType":"image/png",
			"name":"rough_shiny_metal_04_normal.png",
			"uri":"../../../../../Texture_Images/PBR_Textures/cgaxis_pbr_textures_volume_6_metals_part8/rough_shiny_metal_04/rough_shiny_metal_04_normal.png"
		},
		{
			"mimeType":"image/png",
			"name":"rough_shiny_metal_04_glossiness.png",
			"uri":"../../../../../Texture_Images/PBR_Textures/cgaxis_pbr_textures_volume_6_metals_part8/rough_shiny_metal_04/rough_shiny_metal_04_glossiness.png"
		},
		{
			"mimeType":"image/png",
			"name":"rusty_golden_metal_01_normal.png",
			"uri":"../../../../../Texture_Images/PBR_Textures/cgaxis_pbr_textures_volume_6_metals_part8/rusty_golden_metal_01/rusty_golden_metal_01_normal.png"
		},
		{
			"mimeType":"image/png",
			"name":"rusty_golden_metal_01_diffuse.png",
			"uri":"../../../../../Texture_Images/PBR_Textures/cgaxis_pbr_textures_volume_6_metals_part8/rusty_golden_metal_01/rusty_golden_metal_01_diffuse.png"
		},
		{
			"mimeType":"image/png",
			"name":"rusty_golden_metal_01_glossiness.png",
			"uri":"../../../../../Texture_Images/PBR_Textures/cgaxis_pbr_textures_volume_6_metals_part8/rusty_golden_metal_01/rusty_golden_metal_01_glossiness.png"
		},
		{
			"mimeType":"image/png",
			"name":"rusty_golden_metal_01_normal.png.001",
			"uri":"../../../../../Texture_Images/PBR_Textures/cgaxis_pbr_textures_volume_6_metals_part8/rusty_golden_metal_01/rusty_golden_metal_01_normal.png"
		},
		{
			"mimeType":"image/png",
			"name":"rusty_golden_metal_01_diffuse.png.001",
			"uri":"../../../../../Texture_Images/PBR_Textures/cgaxis_pbr_textures_volume_6_metals_part8/rusty_golden_metal_01/rusty_golden_metal_01_diffuse.png"
		},
		{
			"mimeType":"image/png",
			"name":"rusty_golden_metal_01_glossiness.png.001",
			"uri":"../../../../../Texture_Images/PBR_Textures/cgaxis_pbr_textures_volume_6_metals_part8/rusty_golden_metal_01/rusty_golden_metal_01_glossiness.png"
		},
		{
			"mimeType":"image/jpeg",
			"name":"Toilet.jpg",
			"uri":"../../../../../Texture_Images/Toilet.jpg"
		}
	],
	"accessors":[
		{
			"bufferView":0,
			"componentType":5126,
			"count":66,
			"max":[
				4,
				4,
				2
			],
			"min":[
				-4,
				-4,
				1
			],
			"type":"VEC3"
		},
		{
			"bufferView":1,
			"componentType":5126,
			"count":66,
			"type":"VEC3"
		},
		{
			"bufferView":2,
			"componentType":5126,
			"count":66,
			"type":"VEC2"
		},
		{
			"bufferView":3,
			"componentType":5123,
			"count":162,
			"type":"SCALAR"
		},
		{
			"bufferView":4,
			"componentType":5126,
			"count":64,
			"max":[
				2.700000047683716,
				3.0999999046325684,
				1.7999999523162842
			],
			"min":[
				-2.700000047683716,
				-2.799999952316284,
				0.800000011920929
			],
			"type":"VEC3"
		},
		{
			"bufferView":5,
			"componentType":5126,
			"count":64,
			"type":"VEC3"
		},
		{
			"bufferView":6,
			"componentType":5126,
			"count":64,
			"type":"VEC2"
		},
		{
			"bufferView":7,
			"componentType":5123,
			"count":96,
			"type":"SCALAR"
		},
		{
			"bufferView":8,
			"componentType":5126,
			"count":16,
			"max":[
				2.700000047683716,
				3.0999999046325684,
				1.2000000476837158
			],
			"min":[
				-2.700000047683716,
				-2.799999952316284,
				0.800000011920929
			],
			"type":"VEC3"
		},
		{
			"bufferView":9,
			"componentType":5126,
			"count":16,
			"type":"VEC3"
		},
		{
			"bufferView":10,
			"componentType":5126,
			"count":16,
			"type":"VEC2"
		},
		{
			"bufferView":11,
			"componentType":5123,
			"count":24,
			"type":"SCALAR"
		},
		{
			"bufferView":12,
			"componentType":5126,
			"count":66,
			"max":[
				4,
				4,
				2
			],
			"min":[
				-4,
				-4,
				1
			],
			"type":"VEC3"
		},
		{
			"bufferView":13,
			"componentType":5126,
			"count":66,
			"type":"VEC3"
		},
		{
			"bufferView":14,
			"componentType":5126,
			"count":66,
			"type":"VEC2"
		},
		{
			"bufferView":15,
			"componentType":5126,
			"count":64,
			"max":[
				2.700000047683716,
				3.0999999046325684,
				1.7999999523162842
			],
			"min":[
				-2.700000047683716,
				-2.799999952316284,
				0.800000011920929
			],
			"type":"VEC3"
		},
		{
			"bufferView":16,
			"componentType":5126,
			"count":64,
			"type":"VEC3"
		},
		{
			"bufferView":17,
			"componentType":5126,
			"count":64,
			"type":"VEC2"
		},
		{
			"bufferView":18,
			"componentType":5126,
			"count":16,
			"max":[
				2.700000047683716,
				3.0999999046325684,
				1.2000000476837158
			],
			"min":[
				-2.700000047683716,
				-2.799999952316284,
				0.800000011920929
			],
			"type":"VEC3"
		},
		{
			"bufferView":19,
			"componentType":5126,
			"count":16,
			"type":"VEC3"
		},
		{
			"bufferView":20,
			"componentType":5126,
			"count":16,
			"type":"VEC2"
		}
	],
	"bufferViews":[
		{
			"buffer":0,
			"byteLength":792,
			"byteOffset":0,
			"target":34962
		},
		{
			"buffer":0,
			"byteLength":792,
			"byteOffset":792,
			"target":34962
		},
		{
			"buffer":0,
			"byteLength":528,
			"byteOffset":1584,
			"target":34962
		},
		{
			"buffer":0,
			"byteLength":324,
			"byteOffset":2112,
			"target":34963
		},
		{
			"buffer":0,
			"byteLength":768,
			"byteOffset":2436,
			"target":34962
		},
		{
			"buffer":0,
			"byteLength":768,
			"byteOffset":3204,
			"target":34962
		},
		{
			"buffer":0,
			"byteLength":512,
			"byteOffset":3972,
			"target":34962
		},
		{
			"buffer":0,
			"byteLength":192,
			"byteOffset":4484,
			"target":34963
		},
		{
			"buffer":0,
			"byteLength":192,
			"byteOffset":4676,
			"target":34962
		},
		{
			"buffer":0,
			"byteLength":192,
			"byteOffset":4868,
			"target":34962
		},
		{
			"buffer":0,
			"byteLength":128,
			"byteOffset":5060,
			"target":34962
		},
		{
			"buffer":0,
			"byteLength":48,
			"byteOffset":5188,
			"target":34963
		},
		{
			"buffer":0,
			"byteLength":792,
			"byteOffset":5236,
			"target":34962
		},
		{
			"buffer":0,
			"byteLength":792,
			"byteOffset":6028,
			"target":34962
		},
		{
			"buffer":0,
			"byteLength":528,
			"byteOffset":6820,
			"target":34962
		},
		{
			"buffer":0,
			"byteLength":768,
			"byteOffset":7348,
			"target":34962
		},
		{
			"buffer":0,
			"byteLength":768,
			"byteOffset":8116,
			"target":34962
		},
		{
			"buffer":0,
			"byteLength":512,
			"byteOffset":8884,
			"target":34962
		},
		{
			"buffer":0,
			"byteLength":192,
			"byteOffset":9396,
			"target":34962
		},
		{
			"buffer":0,
			"byteLength":192,
			"byteOffset":9588,
			"target":34962
		},
		{
			"buffer":0,
			"byteLength":128,
			"byteOffset":9780,
			"target":34962
		}
	],
	"samplers":[
		{
			"magFilter":9729,
			"minFilter":9987
		}
	],
	"buffers":[
		{
			"byteLength":9908,
			"uri":"Metal1Baked.bin"
		}
	]
}
